<svg aria-hidden="true" style="position: absolute; width: 0; height: 0; overflow: hidden;" version="1.1" xmlns="http://www.w3.org/2000/svg" xmlns:xlink="http://www.w3.org/1999/xlink">
<defs>
<symbol id="icon-bag" viewBox="0 0 34 32">
<path stroke-linejoin="miter" stroke-linecap="butt" stroke-miterlimit="4" stroke-width="3.2" d="M3.377 27.361c1.989 2.505 5.69 2.505 13.092 2.505h1.196c7.402 0 11.104 0 13.092-2.505M3.377 27.361c-1.989-2.506-1.307-6.309 0.058-13.917 0.97-5.41 1.455-8.115 3.297-9.713M3.377 27.361v0zM30.756 27.361c1.989-2.506 1.307-6.309-0.058-13.917-0.97-5.41-1.455-8.115-3.297-9.713M30.756 27.361v0zM27.402 3.731c-1.841-1.598-4.474-1.598-9.738-1.598h-1.196c-5.264 0-7.896 0-9.738 1.598M27.402 3.731v0zM6.731 3.731v0z"></path>
<path stroke-linejoin="miter" stroke-linecap="round" stroke-miterlimit="4" stroke-width="3.2" d="M12.8 8.533c0.621 2.486 2.297 4.267 4.267 4.267s3.646-1.781 4.267-4.267"></path>
</symbol>
<symbol id="icon-short_arrow_right_skim" viewBox="0 0 19 32">
<path stroke-linejoin="miter" stroke-linecap="round" stroke-miterlimit="4" stroke-width="3.1987" d="M1.599 30.388l15.993-14.394-15.993-14.394"></path>
</symbol>
<symbol id="icon-short_arrow_down" viewBox="0 0 64 32">
<path stroke-linejoin="miter" stroke-linecap="round" stroke-miterlimit="4" stroke-width="7.9961" d="M3.998 3.998l27.986 23.988 27.986-23.988"></path>
</symbol>
<symbol id="icon-plus" viewBox="0 0 32 32">
<path stroke-linejoin="miter" stroke-linecap="round" stroke-miterlimit="4" stroke-width="2.4615" d="M30.769 16h-29.538M16 1.231v14.769M16 16v14.769"></path>
</symbol>
<symbol id="icon-short_arrow_right" viewBox="0 0 32 32">
<path stroke-linejoin="miter" stroke-linecap="round" stroke-miterlimit="4" stroke-width="4.9231" d="M9.846 29.538l12.308-13.538-12.308-13.538"></path>
</symbol>
<symbol id="icon-short_arrow_left" viewBox="0 0 32 32">
<path stroke-linejoin="miter" stroke-linecap="round" stroke-miterlimit="4" stroke-width="2.6667" d="M22.667 1.333l-13.333 14.667 13.333 14.667"></path>
</symbol>
<symbol id="icon-arrow" viewBox="0 0 32 32">
<path stroke-linejoin="miter" stroke-linecap="round" stroke-miterlimit="4" stroke-width="0.9796" d="M0.49 15.837h31.020M27.592 19.755l3.918-3.918-3.918-3.918"></path>
</symbol>
<symbol id="icon-lupa" viewBox="0 0 32 32">
<path stroke-linejoin="miter" stroke-linecap="butt" stroke-miterlimit="4" stroke-width="3.0310" d="M29.030 15.273c0 7.598-6.159 13.757-13.757 13.757s-13.757-6.159-13.757-13.757c0-7.598 6.159-13.757 13.757-13.757s13.757 6.159 13.757 13.757z"></path>
<path stroke-linejoin="miter" stroke-linecap="round" stroke-miterlimit="4" stroke-width="3.0310" d="M25.4 25.4l5.072 5.072"></path>
</symbol>
<symbol id="icon-user" viewBox="0 0 32 32">
<path stroke-linejoin="miter" stroke-linecap="butt" stroke-miterlimit="4" stroke-width="3.5276" d="M23.937 9.827c0 4.453-3.61 8.063-8.063 8.063s-8.063-3.61-8.063-8.063c0-4.453 3.61-8.063 8.063-8.063s8.063 3.61 8.063 8.063z"></path>
<path stroke-linejoin="miter" stroke-linecap="butt" stroke-miterlimit="4" stroke-width="3.5276" d="M1.764 31.983c0-4.445 6.303-8.066 14.11-8.066 7.784 0 14.11 3.622 14.11 8.066"></path>
</symbol>
<symbol id="icon-heart" viewBox="0 0 32 32">
<path stroke-linejoin="miter" stroke-linecap="butt" stroke-miterlimit="4" stroke-width="2.8235" d="M3.84 26.108c-5.007-5.609-2.221-15.247 7.774-14.494 0.376-10.014 10.259-11.708 15.266-6.099s3.031 12.725 2.033 18.428c-0.358 2.014-0.715 3.934-1.864 4.951-1.148 1.035-3.087 1.186-5.139 1.299-5.779 0.358-13.064 1.506-18.071-4.085z"></path>
</symbol>
<symbol id="icon-logo" viewBox="0 0 32 32">
<path fill="#d9d9d9" style="fill: var(--color1, #d9d9d9)" d="M16 0l16 16-16 16-16-16 16-16z"></path>
<path fill="#000" style="fill: var(--color2, #000)" d="M16 0l16 16-16 16v-32z"></path>
<path fill="#060606" style="fill: var(--color3, #060606)" d="M31.77 16.224l0.23-0.224-16-16v32l15.77-15.776zM31.546 16l-15.226 15.226v-30.458l15.226 15.232z"></path>
</symbol>
</defs>
</svg>
