<svg aria-hidden="true" style="position: absolute; width: 0; height: 0; overflow: hidden;" version="1.1" xmlns="http://www.w3.org/2000/svg" xmlns:xlink="http://www.w3.org/1999/xlink">
<defs>
<symbol id="icon-stars" viewBox="0 0 152 32">
<path d="M15.404 3.732c0.409-1.208 2.117-1.208 2.526 0l2.172 6.418c0.183 0.541 0.691 0.906 1.263 0.906h6.91c1.305 0 1.833 1.681 0.763 2.427l-5.496 3.833c-0.487 0.339-0.69 0.959-0.5 1.521l2.121 6.267c0.413 1.219-0.97 2.257-2.026 1.521l-5.708-3.981c-0.458-0.32-1.067-0.32-1.526 0l-5.708 3.981c-1.055 0.736-2.438-0.302-2.026-1.521l2.121-6.267c0.19-0.562-0.014-1.182-0.5-1.521l-5.496-3.833c-1.070-0.746-0.542-2.427 0.763-2.427h6.91c0.572 0 1.080-0.364 1.263-0.906l2.172-6.418z"></path>
<path d="M45.409 3.573c0.418-1.188 2.097-1.188 2.515 0l2.32 6.592c0.188 0.534 0.692 0.891 1.258 0.891h7.267c1.317 0 1.837 1.707 0.743 2.441l-5.691 3.817c-0.505 0.339-0.717 0.976-0.515 1.55l2.216 6.296c0.426 1.21-0.935 2.265-2 1.55l-6.113-4.1c-0.449-0.301-1.036-0.301-1.485 0l-6.113 4.1c-1.065 0.714-2.426-0.34-2-1.55l2.216-6.296c0.202-0.574-0.010-1.211-0.515-1.55l-5.691-3.817c-1.094-0.734-0.575-2.441 0.743-2.441h7.267c0.566 0 1.070-0.357 1.258-0.891l2.32-6.592z"></path>
<path d="M74.732 3.903c0.399-1.228 2.137-1.228 2.536 0l2.025 6.232c0.178 0.549 0.69 0.921 1.268 0.921h6.552c1.292 0 1.829 1.653 0.784 2.412l-5.301 3.851c-0.467 0.339-0.663 0.941-0.484 1.491l2.025 6.232c0.399 1.228-1.007 2.25-2.052 1.491l-5.301-3.851c-0.467-0.339-1.1-0.339-1.567 0l-5.301 3.851c-1.045 0.759-2.451-0.262-2.052-1.491l2.025-6.232c0.179-0.549-0.017-1.151-0.484-1.491l-5.301-3.851c-1.045-0.759-0.508-2.412 0.784-2.412h6.552c0.578 0 1.090-0.372 1.268-0.921l2.025-6.232z"></path>
<path d="M104.076 3.573c0.418-1.188 2.097-1.188 2.515 0l2.32 6.592c0.188 0.534 0.692 0.891 1.258 0.891h7.267c1.317 0 1.837 1.707 0.743 2.441l-5.691 3.817c-0.505 0.339-0.717 0.976-0.515 1.55l2.216 6.296c0.426 1.21-0.935 2.265-2 1.55l-6.113-4.1c-0.449-0.301-1.036-0.301-1.485 0l-6.113 4.1c-1.065 0.714-2.426-0.34-2-1.55l2.216-6.296c0.202-0.574-0.010-1.211-0.515-1.55l-5.691-3.817c-1.094-0.734-0.575-2.441 0.743-2.441h7.267c0.566 0 1.070-0.357 1.258-0.891l2.32-6.592z"></path>
<path d="M134.071 3.732c0.408-1.208 2.117-1.208 2.525 0l2.172 6.418c0.184 0.541 0.692 0.906 1.264 0.906h6.909c1.305 0 1.833 1.681 0.764 2.427l-5.496 3.833c-0.487 0.339-0.691 0.959-0.5 1.521l2.12 6.267c0.413 1.219-0.969 2.257-2.025 1.521l-5.708-3.981c-0.459-0.32-1.067-0.32-1.525 0l-5.708 3.981c-1.055 0.736-2.438-0.302-2.026-1.521l2.121-6.267c0.19-0.562-0.014-1.182-0.5-1.521l-5.496-3.833c-1.070-0.746-0.542-2.427 0.763-2.427h6.91c0.572 0 1.080-0.364 1.263-0.906l2.173-6.418z"></path>
</symbol>
<symbol id="icon-minus" viewBox="0 0 128 32">
<path stroke-linejoin="miter" stroke-linecap="round" stroke-miterlimit="4" stroke-width="16" d="M112 16h-96"></path>
</symbol>
<symbol id="icon-burger" viewBox="0 0 50 32">
<path stroke-linejoin="miter" stroke-linecap="round" stroke-miterlimit="4" stroke-width="2.6667" d="M48 1.778h-46.222"></path>
<path stroke-linejoin="miter" stroke-linecap="round" stroke-miterlimit="4" stroke-width="2.6667" d="M33.778 16h-32"></path>
<path stroke-linejoin="miter" stroke-linecap="round" stroke-miterlimit="4" stroke-width="2.6667" d="M24.889 30.222h-23.111"></path>
</symbol>
<symbol id="icon-bag" viewBox="0 0 34 32">
<path stroke-linejoin="miter" stroke-linecap="butt" stroke-miterlimit="4" stroke-width="3.2" d="M3.377 27.361c1.989 2.505 5.69 2.505 13.092 2.505h1.196c7.402 0 11.104 0 13.092-2.505M3.377 27.361c-1.989-2.506-1.307-6.309 0.058-13.917 0.97-5.41 1.455-8.115 3.297-9.713M3.377 27.361v0zM30.756 27.361c1.989-2.506 1.307-6.309-0.058-13.917-0.97-5.41-1.455-8.115-3.297-9.713M30.756 27.361v0zM27.402 3.731c-1.841-1.598-4.474-1.598-9.738-1.598h-1.196c-5.264 0-7.896 0-9.738 1.598M27.402 3.731v0zM6.731 3.731v0z"></path>
<path stroke-linejoin="miter" stroke-linecap="round" stroke-miterlimit="4" stroke-width="3.2" d="M12.8 8.533c0.621 2.486 2.297 4.267 4.267 4.267s3.646-1.781 4.267-4.267"></path>
</symbol>
<symbol id="icon-short_arrow_right_skim" viewBox="0 0 19 32">
<path stroke-linejoin="miter" stroke-linecap="round" stroke-miterlimit="4" stroke-width="3.1987" d="M1.599 30.388l15.993-14.394-15.993-14.394"></path>
</symbol>
<symbol id="icon-short_arrow_down" viewBox="0 0 64 32">
<path stroke-linejoin="miter" stroke-linecap="round" stroke-miterlimit="4" stroke-width="7.9961" d="M3.998 3.998l27.986 23.988 27.986-23.988"></path>
</symbol>
<symbol id="icon-plus" viewBox="0 0 32 32">
<path stroke-linejoin="miter" stroke-linecap="round" stroke-miterlimit="4" stroke-width="2.4615" d="M30.769 16h-29.538M16 1.231v14.769M16 16v14.769"></path>
</symbol>
<symbol id="icon-short_arrow_right" viewBox="0 0 32 32">
<path stroke-linejoin="miter" stroke-linecap="round" stroke-miterlimit="4" stroke-width="4.9231" d="M9.846 29.538l12.308-13.538-12.308-13.538"></path>
</symbol>
<symbol id="icon-short_arrow_left" viewBox="0 0 32 32">
<path stroke-linejoin="miter" stroke-linecap="round" stroke-miterlimit="4" stroke-width="2.6667" d="M22.667 1.333l-13.333 14.667 13.333 14.667"></path>
</symbol>
<symbol id="icon-arrow" viewBox="0 0 32 32">
<path stroke-linejoin="miter" stroke-linecap="round" stroke-miterlimit="4" stroke-width="0.9796" d="M0.49 15.837h31.020M27.592 19.755l3.918-3.918-3.918-3.918"></path>
</symbol>
<symbol id="icon-lupa" viewBox="0 0 32 32">
<path stroke-linejoin="miter" stroke-linecap="butt" stroke-miterlimit="4" stroke-width="3.0310" d="M29.030 15.273c0 7.598-6.159 13.757-13.757 13.757s-13.757-6.159-13.757-13.757c0-7.598 6.159-13.757 13.757-13.757s13.757 6.159 13.757 13.757z"></path>
<path stroke-linejoin="miter" stroke-linecap="round" stroke-miterlimit="4" stroke-width="3.0310" d="M25.4 25.4l5.072 5.072"></path>
</symbol>
<symbol id="icon-user" viewBox="0 0 32 32">
<path stroke-linejoin="miter" stroke-linecap="butt" stroke-miterlimit="4" stroke-width="3.5276" d="M23.937 9.827c0 4.453-3.61 8.063-8.063 8.063s-8.063-3.61-8.063-8.063c0-4.453 3.61-8.063 8.063-8.063s8.063 3.61 8.063 8.063z"></path>
<path stroke-linejoin="miter" stroke-linecap="butt" stroke-miterlimit="4" stroke-width="3.5276" d="M1.764 31.983c0-4.445 6.303-8.066 14.11-8.066 7.784 0 14.11 3.622 14.11 8.066"></path>
</symbol>
<symbol id="icon-heart" viewBox="0 0 32 32">
<path stroke-linejoin="miter" stroke-linecap="butt" stroke-miterlimit="4" stroke-width="2.8235" d="M3.84 26.108c-5.007-5.609-2.221-15.247 7.774-14.494 0.376-10.014 10.259-11.708 15.266-6.099s3.031 12.725 2.033 18.428c-0.358 2.014-0.715 3.934-1.864 4.951-1.148 1.035-3.087 1.186-5.139 1.299-5.779 0.358-13.064 1.506-18.071-4.085z"></path>
</symbol>
<symbol id="icon-logo" viewBox="0 0 32 32">
<path fill="#d9d9d9" style="fill: var(--color1, #d9d9d9)" d="M16 0l16 16-16 16-16-16 16-16z"></path>
<path fill="#000" style="fill: var(--color2, #000)" d="M16 0l16 16-16 16v-32z"></path>
<path fill="#060606" style="fill: var(--color3, #060606)" d="M31.77 16.224l0.23-0.224-16-16v32l15.77-15.776zM31.546 16l-15.226 15.226v-30.458l15.226 15.232z"></path>
</symbol>
</defs>
</svg>
